HIERARCHY
ROOT simHips
{
  OFFSET -187.374 99.3613 -7.87192
  CHANNELS 6 Xposition Yposition Zposition Zrotation Xrotation Yrotation
  JOINT simSpine
  {
    OFFSET -0.000355721 21.3001 -0.016921
    CHANNELS 3 Zrotation Xrotation Yrotation
    JOINT simLeftArm
    {
      OFFSET 13.5181 21.3012 0
      CHANNELS 3 Zrotation Xrotation Yrotation
      JOINT simLeftForeArm
      {
        OFFSET 24.5783 0 0
        CHANNELS 3 Zrotation Xrotation Yrotation
        JOINT simLeftHand
        {
          OFFSET 24.5783 0 0
          CHANNELS 3 Zrotation Xrotation Yrotation
          End Site
          {
            OFFSET 7.32568 1.52588e-05 0.0169305
          }
        }
      }
    }
    JOINT simHead
    {
      OFFSET 0 27.4458 -0.00489235
      CHANNELS 3 Zrotation Xrotation Yrotation
      End Site
      {
        OFFSET 0 0 0
      }
    }
    JOINT simRightArm
    {
      OFFSET -13.5174 21.3012 0
      CHANNELS 3 Zrotation Xrotation Yrotation
      JOINT simRightForeArm
      {
        OFFSET -24.5783 0 0
        CHANNELS 3 Zrotation Xrotation Yrotation
        JOINT simRightHand
        {
          OFFSET -24.5783 0 0
          CHANNELS 3 Zrotation Xrotation Yrotation
          End Site
          {
            OFFSET -7.32568 1.52588e-05 0.0169305
          }
        }
      }
    }
  }
  JOINT simRightUpLeg
  {
    OFFSET -8.44614 -9.41038 0.835684
    CHANNELS 3 Zrotation Xrotation Yrotation
    JOINT simRightLeg
    {
      OFFSET 0 -40.9639 0
      CHANNELS 3 Zrotation Xrotation Yrotation
      JOINT simRightFoot
      {
        OFFSET 0 -40.9639 0
        CHANNELS 3 Zrotation Xrotation Yrotation
        End Site
        {
          OFFSET 0.50614 -9.67405 14.6709
        }
      }
    }
  }
  JOINT simLeftUpLeg
  {
    OFFSET 8.44614 -9.41038 0.835684
    CHANNELS 3 Zrotation Xrotation Yrotation
    JOINT simLeftLeg
    {
      OFFSET 0 -40.9639 0
      CHANNELS 3 Zrotation Xrotation Yrotation
      JOINT simLeftFoot
      {
        OFFSET 0 -40.9639 0
        CHANNELS 3 Zrotation Xrotation Yrotation
        End Site
        {
          OFFSET -0.50614 -9.67405 14.6709
        }
      }
    }
  }
}
MOTION
Frames:	21
Frame Time:	0.0333333
35.5063 98.4752 -4.72169 28.529 -7.59334 -87.7731 -9.35515 -3.50323 -3.89814 -59.9436 -38.728 -89.8568 -0.000221988 -0.000220654 -94.3421 -8.71416 -36.2879 2.04671 2.26149 6.8285 4.58566 50.5197 -43.4618 77.7198 0.00463111 0.0027672 108.521 -43.7447 -31.1175 12.5834 -14.2392 -5.53708 -20.3138 -6.27965e-05 19.4737 0.139946 10.0315 5.45541 10.8705 1.02878 -3.22302 7.67793 -0.000981064 7.26071 0.616209 -51.9396 8.81311 14.4972 
26.49 105.38 -4.80093 28.2394 -7.74136 -87.9538 -9.00915 -6.57146 -4.22292 -59.5352 -42.0651 -89.4088 -0.000218677 -0.000218601 -92.6488 -8.98233 -36.2655 2.51982 1.59387 13.5454 4.78522 45.8621 -44.6399 76.3399 0.00327352 0.00215126 105.352 -44.5291 -32.203 11.7392 -14.1961 -6.48619 -13.3673 -2.33208e-05 25.7817 0.0447722 4.31803 19.1375 3.89295 0.49198 -5.22631 5.93778 -0.0119304 17.1186 0.883545 -51.701 19.4909 24.3251 
20.1729 111.078 -5.0112 24.0443 -8.89508 -86.7394 -9.58407 -4.45327 -3.93128 -59.394 -42.2686 -88.3742 -0.00021455 -0.000207438 -90.5121 -8.09866 -34.6634 2.65035 1.47759 16.5371 2.31579 40.9964 -46.9313 72.8982 0.0019724 0.00182328 103.987 -45.0825 -33.3666 10.6905 -16.8557 -10.4523 -11.2971 9.1508e-06 52.5992 0.0656464 6.12499 14.8734 4.39826 0.341643 -13.5345 7.00596 0.00288812 49.9022 0.5627 -57.0049 18.3711 20.7288 
14.7516 115.755 -5.29215 21.7219 -8.94627 -86.2985 -9.84229 -3.169 -3.71047 -57.2682 -40.305 -82.7746 -0.000213393 -0.000209247 -89.817 -7.32786 -33.9755 3.54102 2.27985 20.5824 1.58819 39.8164 -43.6541 68.6014 0.000744472 0.00178969 104.887 -45.6762 -33.1048 9.48733 -18.624 -19.0175 -10.9178 -0.000100107 80.8118 0.0457248 2.8184 9.23557 6.21772 2.66976 -25.6398 10.3266 -0.00134656 83.3481 0.201973 -51.1088 11.0399 13.4267 
10.0282 119.645 -5.82885 21.0535 -9.10437 -87.1358 -10.3042 -1.24498 -3.35158 -54.2105 -38.9844 -78.0414 -0.000213953 -0.000209828 -87.9253 -7.19702 -33.9069 3.72886 3.01927 22.59 1.95944 41.1004 -38.6967 67.2658 -0.000280128 0.00154125 103.951 -46.8935 -33.2188 7.85054 -21.0983 -31.183 -11.876 180 73.6859 -179.973 -2.78072 0.668277 0.503885 7.01346 -39.4557 16.1776 -180 69.7262 179.995 -46.5321 2.00225 9.4173 
5.77313 122.522 -6.38442 22.2749 -9.14811 -88.3352 -10.648 0.262534 -3.21249 -49.7628 -39.2868 -71.8191 -0.000198523 -0.000208065 -87.7645 -6.44315 -32.7153 4.46239 3.34119 23.0013 2.55184 42.664 -34.1126 66.9151 -0.00117935 0.00137275 103.631 -45.1633 -32.0095 8.18719 -24.1383 -48.1495 -13.6626 179.999 53.0618 -179.994 -9.37603 -4.71534 -4.73693 16.5446 -56.226 26.7119 179.992 51.3507 179.817 -44.0781 -0.8733 6.20301 
1.41802 124.303 -6.82517 22.688 -9.31263 -89.2959 -10.9385 2.13268 -3.12126 -44.9621 -38.6221 -64.1784 -0.000919775 -0.00021625 -87.4162 -5.97509 -31.7386 4.957 2.70893 23.6062 2.93122 42.1637 -28.8969 63.3326 -0.00197128 0.00135202 104.887 -42.9217 -29.7079 9.67672 -30.0161 -65.3299 -17.6813 179.999 40.547 179.988 -12.8159 -7.19307 -3.57513 34.9241 -69.8722 45.5487 -180 45.2453 179.704 -44.6017 -0.962522 2.26223 
-3.39268 125.066 -7.21748 22.4463 -9.62048 -90.0413 -11.2519 3.86127 -2.90269 -40.7071 -37.6127 -57.6139 -0.00224542 -0.000316995 -85.5479 -5.18186 -30.8692 5.10332 2.2379 24.0576 3.21772 39.8378 -26.7958 60.2502 -0.00259011 0.00121188 104.923 -42.8659 -29.3069 9.22117 -47.8925 -78.2283 -34.3825 -179.999 38.5964 179.954 -9.62122 -9.03138 -0.253012 62.051 -76.5722 73.3935 -180 51.6344 179.744 -45.3026 -1.68075 -0.149966 
-9.28343 125.328 -7.76518 22.5541 -9.82684 -90.142 -11.5972 4.50679 -2.87894 -36.4272 -37.5176 -51.4218 -0.0036597 -0.000335926 -84.3252 -4.47711 -29.4466 5.02723 1.81482 26.0116 3.46245 36.1455 -27.622 55.5851 -0.00307806 0.00110921 105.482 -43.6808 -29.5019 8.08458 -78.6852 -82.6174 -68.9037 -180 46.2123 179.924 -10.5411 -13.5236 -6.18072 74.6895 -78.4142 86.7705 -180 66.1747 179.848 -43.7101 -3.09957 0.747112 
-16.1132 124.872 -8.37316 22.3991 -9.41133 -89.8005 -11.9904 3.73448 -3.11082 -31.1676 -38.0348 -43.8984 -0.00464413 -0.000252406 -85.0761 -4.14365 -28.3355 5.30795 2.67523 29.5316 2.91096 30.2646 -30.3889 47.6194 -0.00343799 0.00104304 106.787 -45.7242 -31.8358 5.85906 -71.3736 -82.9039 -64.5979 -180 60.4066 179.938 -9.19636 -16.8152 -8.40936 55.7185 -78.3413 68.0025 -180 84.995 179.959 -44.2654 -1.1911 5.07529 
-23.7582 123.284 -8.98649 21.0894 -8.53857 -89.6896 -12.1176 2.87465 -3.52973 -25.4411 -39.9272 -35.9807 -0.00465979 -0.000220387 -85.6672 -5.30985 -29.3101 4.3443 3.50803 33.8143 2.758 22.132 -32.5265 37.2367 -0.00365822 0.000962841 108.25 -50.776 -34.2477 3.5778 -39.3787 -79.3752 -33.6739 -179.999 78.0654 179.975 -3.57446 -14.3407 -3.84819 29.6117 -72.8175 42.1535 4.1681e-05 73.7535 0.112565 -47.4057 7.08906 13.013 
-32.002 120.686 -9.42928 19.1016 -7.95798 -89.6761 -12.22 2.27808 -3.4717 -19.8567 -42.4995 -27.9623 -0.00318387 -0.000212756 -86.5442 -6.43389 -30.5762 4.09076 4.06802 38.7533 2.52779 12.7764 -33.7419 25.2945 -0.00373964 0.000866767 109.912 -55.6661 -37.1529 0.674675 -25.0417 -70.6104 -20.4378 0.00109121 82.4533 0.0213724 3.43876 -12.888 -1.78419 15.2255 -62.8593 29.4981 -0.0105087 51.2493 0.361332 -52.7214 14.5109 23.1126 
-40.7919 116.945 -9.77173 16.1434 -7.06397 -89.7647 -11.9554 1.36786 -3.16417 -14.819 -42.9165 -19.3453 0.00210805 -0.000198969 -88.0431 -7.542 -31.0656 3.45141 4.15609 44.8543 2.6954 4.08319 -32.2558 13.7804 -0.00367827 0.000741196 111.492 -59.1268 -39.2487 -2.79914 -18.2105 -58.9739 -16.136 3.39159e-07 61.8318 0.0491072 5.80383 -15.857 -0.382258 8.27255 -50.5207 24.924 -0.000838246 29.4603 0.778935 -56.6296 19.9584 28.0114 
-49.8797 111.776 -10.1353 12.5709 -6.01512 -90.2895 -11.474 0.298444 -3.03488 -9.57508 -40.5706 -9.96995 -0.000417392 -0.000218385 -89.2745 -8.77761 -32.0102 3.00627 2.97288 50.9127 3.96343 1.6854 -25.9356 6.05258 -0.00348956 0.000621441 114.316 -60.5394 -39.2645 -4.39932 -13.4467 -47.5027 -13.818 -0.00024231 42.1507 0.097246 8.31288 -18.1681 3.40279 4.68076 -36.9517 21.8175 0.00106809 9.36269 1.94071 -63.773 23.1233 32.0182 
-58.7899 105.397 -10.5577 9.19771 -4.79391 -90.7743 -11.2411 -0.312313 -2.7824 -8.31667 -35.6531 -3.27273 -6.50834e-05 -0.000209027 -89.9156 -8.48676 -31.5241 3.43837 2.65128 55.0727 4.42827 3.80589 -17.7192 0.334435 -0.00316146 0.000472196 118.06 -59.9909 -39.0866 -4.83795 -10.1348 -38.9811 -12.5959 -0.000337796 27.8125 0.16264 11.5999 -19.5975 7.70213 5.8411 -31.3457 20.407 0.000254314 8.12088 1.30026 -62.3032 24.6435 30.2302 
-67.1104 97.9914 -10.7799 7.81239 -4.44655 -91.0114 -11.2341 -1.53378 -2.54973 -13.215 -29.9058 0.964023 -0.000136817 -0.00021221 -89.5052 -8.10029 -29.912 3.98642 1.18859 54.2116 5.66846 12.1747 -8.0307 -4.0309 -0.00267883 0.000267224 121.788 -57.1305 -37.8794 -1.72618 -9.63912 -37.0059 -11.9 0.000434814 23.4141 0.167683 17.2104 -18.2504 11.4288 6.25321 -32.1305 17.6289 -0.000416701 22.0623 0.628432 -49.5923 12.2765 10.8063 
-73.3287 90.17 -11.0412 7.09421 -4.39171 -90.9527 -11.4301 -0.0749331 -2.3697 -21.011 -26.261 2.66493 -0.000135791 -0.000223377 -87.0024 -7.94239 -29.0994 4.38821 0.580862 44.8782 6.81543 24.0772 -2.23529 -6.51197 -0.00203835 1.0678e-05 122.342 -53.0704 -36.492 0.294679 -10.5294 -46.599 -11.072 -0.00037995 41.3588 0.0658177 16.638 -5.43895 11.0652 8.37268 -43.0306 13.9482 -0.00111866 54.5809 0.156483 -46.9554 -13.4833 -3.92295 
-78.2156 85.2332 -11.9678 9.24637 -4.89444 -89.1923 -11.5602 -1.89845 -2.34248 -36.2708 -19.0992 1.35499 -5.4104e-05 -0.00019805 -78.0464 -3.98521 -28.0665 6.36402 2.23922 40.4079 4.04395 42.2742 4.78038 -9.64974 -0.00130041 -0.000192329 114.844 -49.0738 -33.0643 1.5624 -11.9071 -60.0693 -9.19371 -2.92474e-05 66.2568 0.0104095 4.5773 -15.7015 8.63152 8.34155 -51.2923 10.9871 -0.00571018 71.0349 0.120431 -48.1488 -20.2542 -8.01769 
-84.6187 83.6688 -12.4811 5.22426 -4.03226 -88.3866 -11.1935 -0.45276 -2.15209 -49.8316 -9.69926 3.97009 -0.00158627 -0.000408935 -64.6807 -52.6203 -43.7463 -8.45805 3.49211 44.8522 3.17077 60.4186 11.2556 -12.2903 0.000214854 -0.000215703 98.743 -46.218 -29.5293 2.93798 -8.09997 -53.7211 -5.54218 -0.00174673 73.4178 0.0201449 5.59854 -26.2844 6.93611 6.27003 -44.1004 5.75001 -0.00071764 76.1337 0.0993464 -52.2522 -27.6773 -13.4679 
-90.0273 84.0432 -13.0967 6.76611 -3.16624 -86.394 -10.882 -1.15213 -2.63781 -58.3846 0.929855 5.35469 -0.00308319 -0.00051466 -57.4369 -24.9347 -35.4796 -4.2191 5.93252 40.9066 1.25232 69.9641 13.4482 -15.1705 0.000214158 -0.000205405 90.2985 -40.9092 -29.5465 2.11645 -6.78553 -51.7047 -5.42574 -0.00634027 75.5074 0.0116121 2.83466 -30.9557 4.31283 3.07539 -41.6709 -1.60004 0.0258748 75.8836 0.0772412 -54.7649 -31.6053 -14.4235 
-94.9409 85.4966 -13.7323 7.14551 -3.22045 -86.5079 -11.0036 -1.02339 -2.36984 -62.8988 6.09871 10.5701 -0.00459457 -0.000509342 -57.8142 -16.2793 -32.8402 -1.93555 6.52347 34.8094 2.4158 74.1725 18.8771 -19.3745 0.0001871 -0.000210029 92.1791 -37.9843 -28.6634 3.64274 -5.43352 -46.63 -4.83796 -0.000753182 73.2902 -0.00153338 1.0313 -34.2293 3.48719 2.43749 -36.9989 -3.82086 0.0508699 73.3484 0.0619706 -55.5112 -31.9442 -13.5235 
